<svg id="Layer_1" data-name="Layer 1" xmlns="http://www.w3.org/2000/svg" xmlns:xlink="http://www.w3.org/1999/xlink" viewBox="0 0 64 37"><defs><style>.cls-1{fill:none;}.cls-2{clip-path:url(#clip-path);}.cls-3{fill:#fff;}.cls-4{fill:#bd0034;}.cls-5{fill:#1a237b;}</style><clipPath id="clip-path"><rect class="cls-1" x="-0.14" y="-0.41" width="64" height="37.33"/></clipPath></defs><title>uk</title><g id="UNITED_KINGDOM" data-name="UNITED KINGDOM"><g class="cls-2"><rect class="cls-3" x="-0.14" y="-0.41" width="64" height="37.33"/><polygon class="cls-4" points="42.72 13.09 63.86 1.25 63.86 -0.41 62.4 -0.41 38.29 13.09 42.72 13.09"/><polygon class="cls-4" points="41.72 24.17 63.86 36.56 63.86 34.09 46.14 24.17 41.72 24.17"/><polygon class="cls-4" points="-0.14 2.43 18.81 13.09 23.23 13.09 -0.14 -0.05 -0.14 2.43"/><polygon class="cls-4" points="22.23 24.17 -0.14 36.7 -0.14 36.92 3.9 36.92 26.66 24.17 22.23 24.17"/><polygon class="cls-5" points="59.48 -0.41 37.08 -0.41 37.08 12.14 59.48 -0.41"/><polygon class="cls-5" points="27.18 -0.41 4.86 -0.41 27.18 12.14 27.18 -0.41"/><polygon class="cls-5" points="63.86 13.09 63.86 4.52 48.66 13.09 63.86 13.09"/><polygon class="cls-5" points="63.86 32.64 63.86 24.17 48.66 24.17 63.86 32.64"/><polygon class="cls-5" points="6.13 36.92 27.18 36.92 27.18 25.12 6.13 36.92"/><polygon class="cls-5" points="37.08 36.92 58.19 36.92 37.08 25.12 37.08 36.92"/><polygon class="cls-5" points="-0.14 24.17 -0.14 33.03 15.59 24.17 -0.14 24.17"/><polygon class="cls-5" points="-0.14 13.09 15.59 13.09 -0.14 4.22 -0.14 13.09"/><polygon class="cls-4" points="29.16 -0.41 29.16 15.3 -0.14 15.3 -0.14 21.96 29.16 21.96 29.16 36.92 35.09 36.92 35.09 21.96 63.86 21.96 63.86 15.3 35.09 15.3 35.09 -0.41 29.16 -0.41"/></g></g></svg>